<?xml version="1.0" encoding="utf-8"?>
<!-- Generator: Adobe Illustrator 23.0.2, SVG Export Plug-In . SVG Version: 6.00 Build 0)  -->
<svg version="1.1" id="picoferm-svg" xmlns="http://www.w3.org/2000/svg" xmlns:xlink="http://www.w3.org/1999/xlink" x="0px"
	 y="0px" viewBox="0 0 147 155" style="enable-background:new 0 0 147 155;" xml:space="preserve">
<style type="text/css">
	.st0{fill:none;stroke:#ffffff;stroke-width:2;stroke-linecap:round;}
	.st1{fill:none;stroke:#ffffff;stroke-width:2;}
	.st2{fill:none;stroke:#ffffff;stroke-width:1.5;}
</style>
<title>PicoFerm</title>
<g>
	<path class="st0" d="M143.3,81.8c-5.5,23.6-18.7,34.1-36.8,34.1H39.8c-18.1,0-31.3-10.5-36.8-34.1"/>
	<path class="st1" d="M106.6,107.7H39.8C21.7,107.7,2,92.9,2,74.8v-1.9c0-18.1,19.7-32.9,37.8-32.9h66.8c18.1,0,37.8,14.8,37.8,32.9
		v1.9C144.3,92.9,124.7,107.7,106.6,107.7z"/>
	<path class="st2" d="M106.1,91.8H40.2c-10,0-20.8-8.2-20.8-18.2v-1.1c0-10,10.8-18.2,20.8-18.2h65.9c10,0,20.8,8.2,20.8,18.2v1.1
		C126.9,83.7,116.1,91.8,106.1,91.8z"/>
	<path class="st2" d="M40.2,54.4c10,0,20.8,8.2,20.8,18.2v1.1c0,10-10.8,18.2-20.8,18.2"/>
	<path class="st2" d="M45,72.3c0,2.4-2.2,4.4-4.8,4.4c-2.7,0-4.8-1.9-4.8-4.4s2.2-4.4,4.8-4.4C42.9,67.9,45,69.9,45,72.3z"/>
	<path class="st2" d="M106.7,75.2H73.1c-1.6,0-2.9-1.3-2.9-2.9c0-1.6,1.3-2.9,2.9-2.9h33.6c1.6,0,2.9,1.3,2.9,2.9
		C109.6,73.9,108.3,75.2,106.7,75.2z"/>
	<path class="st2" d="M83.3,69.4v5.7"/>
	<path class="st2" d="M96,69.4v5.7"/>
</g>
</svg>
