<?xml version="1.0" encoding="utf-8"?>
<!-- Generator: Adobe Illustrator 23.0.2, SVG Export Plug-In . SVG Version: 6.00 Build 0)  -->
<svg version="1.1" id="Layer_1" xmlns="http://www.w3.org/2000/svg" xmlns:xlink="http://www.w3.org/1999/xlink" x="0px" y="0px"
	 viewBox="0 0 129 165.7" style="enable-background:new 0 0 129 165.7;" xml:space="preserve">
<style type="text/css">
	.st0{fill:none;}
	.st1{fill:none;stroke:#ffffff;stroke-miterlimit:10;}
</style>
<title>Pico</title>
<g transform="translate(2.000000, 2.000000)">
	<path class="st0" d="M122,156.4H3.6c-1,0-1.8-0.8-1.8-1.8v-27.3h122v27.3C123.8,155.6,123,156.4,122,156.4"/>
	<path class="st0" d="M111.1,161.9H14.6c-1,0-1.8-0.8-1.8-1.8v-3.6h100.1v3.6C112.9,161.1,112.1,161.9,111.1,161.9"/>
	<path class="st0" d="M112.4,141.8H93.3c-0.5,0-0.9-0.4-0.9-0.9v-5.5c0-0.5,0.4-0.9,0.9-0.9h19.1c0.5,0,0.9,0.4,0.9,0.9v5.5
		C113.3,141.4,112.9,141.8,112.4,141.8"/>
	<polygon class="st0" points="111.9,122.3 123.9,122.3 123.9,39.4 111.9,39.4 	"/>
	<polygon class="st0" points="1.7,122.3 13.7,122.3 13.7,39.4 1.7,39.4 	"/>
	<path class="st0" d="M124.7,127.3H0.9c-0.5,0-0.9-0.4-0.9-0.9v-2.7c0-0.5,0.4-0.9,0.9-0.9h123.8c0.5,0,0.9,0.4,0.9,0.9v2.7
		C125.6,126.9,125.2,127.3,124.7,127.3"/>
	<polygon class="st0" points="13.7,122.3 112,122.3 112,39.4 13.7,39.4 	"/>
	<path class="st0" d="M122.9,39.4H2.7c-1,0-1.8-0.8-1.8-1.8V2.1c0-1,0.8-1.8,1.8-1.8h120.2c1,0,1.8,0.8,1.8,1.8v35.5
		C124.7,38.6,123.9,39.4,122.9,39.4"/>
	<path class="st0" d="M115.2,34.9H10.5c-1.5,0-2.7-1.2-2.7-2.7V6.7C7.8,5.2,9,4,10.5,4h104.7c1.5,0,2.7,1.2,2.7,2.7v25.5
		C117.9,33.7,116.7,34.9,115.2,34.9"/>
	<path class="st0" d="M92.4,26.7H34.1c-2,0-3.6-1.6-3.6-3.6v-7.3c0-2,1.6-3.6,3.6-3.6h58.3c2,0,3.6,1.6,3.6,3.6v7.3
		C96,25.1,94.4,26.7,92.4,26.7"/>
	<path class="st0" d="M75.1,22.6H50.5c-0.5,0-0.9-0.4-0.9-0.9v-4.6c0-0.5,0.4-0.9,0.9-0.9h24.6c0.5,0,0.9,0.4,0.9,0.9v4.6
		C76,22.2,75.6,22.6,75.1,22.6"/>
	<path class="st0" d="M93.3,19.4c0,2.8-2.2,5-5,5s-5-2.2-5-5s2.2-5,5-5C91.1,14.4,93.3,16.7,93.3,19.4"/>
	<path class="st0" d="M41.4,19.4c0,1.8-1.4,3.2-3.2,3.2S35,21.2,35,19.4c0-1.8,1.4-3.2,3.2-3.2S41.4,17.7,41.4,19.4"/>
</g>
<g>
	<path class="st1" d="M114.1,143.5h-19c-0.5,0-0.9-0.4-0.9-0.9v-5.4c0-0.5,0.4-0.9,0.9-0.9h19.1c0.5,0,0.9,0.4,0.9,0.9v5.4
		C115.1,143.1,114.6,143.5,114.1,143.5z"/>
	<path class="st1" d="M99.6,122.6H29.7c-1,0-1.8-0.8-1.8-1.8v-3.6h73.6v3.6C101.4,121.8,100.6,122.6,99.6,122.6z"/>
	<path class="st1" d="M106,117.2H23.3c-1,0-1.8-0.8-1.8-1.8V54.5h86.3v60.8C107.8,116.4,107,117.2,106,117.2z"/>
	<path class="st1" d="M110.1,54.5H19.3c-0.5,0-0.9-0.4-0.9-0.9v-6.4c0-0.5,0.4-0.9,0.9-0.9h90.8c0.5,0,0.9,0.4,0.9,0.9v6.4
		C111,54.1,110.6,54.5,110.1,54.5z"/>
	<path class="st1" d="M95.1,21.4c0,2.8-2.2,5-5,5s-5-2.2-5-5s2.2-5,5-5C92.8,16.4,95.1,18.6,95.1,21.4z"/>
	<path class="st1" d="M76.9,24.5H52.4c-0.5,0-0.9-0.4-0.9-0.9v-4.5c0-0.5,0.4-0.9,0.9-0.9h24.5c0.5,0,0.9,0.4,0.9,0.9v4.5
		C77.8,24.1,77.4,24.5,76.9,24.5z"/>
	<path class="st1" d="M43.3,21.4c0,1.8-1.4,3.2-3.2,3.2S37,23.1,37,21.4c0-1.8,1.4-3.2,3.2-3.2S43.3,19.6,43.3,21.4z"/>
	<path class="st1" d="M94.2,28.6H36.1c-2,0-3.6-1.6-3.6-3.6v-7.3c0-2,1.6-3.6,3.6-3.6h58.1c2,0,3.6,1.6,3.6,3.6V25
		C97.8,27,96.2,28.6,94.2,28.6z"/>
	<path class="st1" d="M116.9,36.8H12.4c-1.5,0-2.7-1.2-2.7-2.7V8.7c0-1.5,1.2-2.7,2.7-2.7h104.4c1.5,0,2.7,1.2,2.7,2.7v25.4
		C119.6,35.6,118.4,36.8,116.9,36.8z"/>
	<polygon class="st1" points="3.7,124 15.7,124 15.7,41.3 3.7,41.3 	"/>
	<path class="st1" d="M112.8,163.5H16.5c-1,0-1.8-0.8-1.8-1.8v-3.6h99.9v3.6C114.6,162.7,113.8,163.5,112.8,163.5z"/>
	<path class="st1" d="M123.7,158H5.6c-1,0-1.8-0.8-1.8-1.8V129h121.7v27.2C125.5,157.2,124.7,158,123.7,158z"/>
	<path class="st1" d="M126.4,129H2.9c-0.5,0-0.9-0.4-0.9-0.9v-2.8c0-0.5,0.4-0.9,0.9-0.9h123.5c0.5,0,0.9,0.4,0.9,0.9v2.7
		C127.3,128.6,126.9,129,126.4,129z"/>
	<polygon class="st1" points="113.6,124 125.6,124 125.6,41.3 113.6,41.3 	"/>
	<path class="st1" d="M124.6,41.3H4.7c-1,0-1.8-0.8-1.8-1.8V4.1c0-1,0.8-1.8,1.8-1.8h119.9c1,0,1.8,0.8,1.8,1.8v35.4
		C126.4,40.5,125.6,41.3,124.6,41.3z"/>
</g>
</svg>
