<?xml version="1.0" encoding="utf-8"?>
<!-- Generator: Adobe Illustrator 23.0.2, SVG Export Plug-In . SVG Version: 6.00 Build 0)  -->
<svg version="1.1" id="picostill-svg" xmlns="http://www.w3.org/2000/svg" xmlns:xlink="http://www.w3.org/1999/xlink" x="0px"
	 y="0px" viewBox="0 0 90 221.2" style="enable-background:new 0 0 90 221.2;" xml:space="preserve">
<style type="text/css">
	.st0{fill:none;stroke:#ffffff;}
	.st1{fill:none;stroke:#ffffff;stroke-width:2;}
	.st2{fill:none;stroke:#ffffff;stroke-width:3;}
	.st3{fill:none;stroke:#ffffff;stroke-width:2.5;stroke-linecap:round;}
</style>
<title>PicoStill</title>
<g>
	<path class="st0" d="M18.5,37.6h19.6c1.6,0,2.8,1.3,2.8,2.8c0,1.6-1.3,2.8-2.8,2.8"/>
	<polygon class="st0" points="10.9,71.4 38.2,71.4 38.2,43.2 10.9,43.2 	"/>
	<path class="st0" d="M51.3,36.7v-6.6h1.9c0,0,0-16-13.2-16c-14.1,0-12.2,16-12.2,16h2.8v7.5"/>
	<polygon class="st0" points="34.4,100.6 60.7,100.6 60.7,85.5 34.4,85.5 	"/>
	<path class="st0" d="M34.4,98.7H3.6c-0.6,0-1.1-0.5-1.1-1.1v-3.4c0-0.6,0.5-1.1,1.1-1.1h30.8"/>
	<path class="st0" d="M60.7,98.7h25.2c0.6,0,1.1-0.5,1.1-1.1v-3.4c0-0.6-0.5-1.1-1.1-1.1H60.7v-7.5h-16V49.8"/>
	<path class="st0" d="M60.1,36.7H46c-0.8,0-1.3,0.5-1.3,1.5s0,4.8,0,11.2h37"/>
	<path class="st0" d="M87.1,136.3c0,1-8.4,1.9-18.8,1.9s-18.8-0.8-18.8-1.9c0-1,8.4-1.9,18.8-1.9S87.1,135.2,87.1,136.3z"/>
	<path class="st0" d="M87.1,144.7c0,1-8.4,1.9-18.8,1.9s-18.8-0.8-18.8-1.9v-8.5"/>
	<path class="st0" d="M50.4,145.3l-1.6,5c-0.2,0.7-0.3,1.4-0.3,2V204c0,1.9,3.8,4.7,3.8,4.7"/>
	<path class="st0" d="M48.5,184.3c-0.3,0-0.6,0-0.9,0c-0.9,0-1.9,0-2.8,0c-21.3,0-38.5-5.5-38.5-7.6"/>
	<path class="st0" d="M52.3,208.7c0-0.9,7.2-1.6,16-1.6s16,0.7,16,1.6"/>
	<g>
		<path class="st1" d="M8,92.9v-43h3v-6.2c-2,0-3-1-3-3.1c0-2.1,1-3.1,3-3h7.5v-7.7h2.9c0.9-13.6,7.1-20.4,18.7-20.4
			s17.8,6.9,18.8,20.7h1.9v6.4c12.4,0,19.1,0,20,0c1.4,0,1.6,1.3,1.6,1.3s0,18.4,0,55.2"/>
		<path class="st1" d="M83.3,98.7v36.5c2.6,0.2,3.9,0.6,3.9,1.2c0,0.6,0,3.2,0,8c-0.3,0.7-0.7,1.1-1,1.2c-0.5,0.3,1.8,4.1,1.8,7
			c0,1.9,0,19,0,51.4c-0.6,2.6-1.9,4.3-3.9,5c-3,1.1-18.6,2.8-31.6-0.3c-1.6-0.8-2.9-2.1-4-4v-3.5c-19.6-0.5-33.7-3.1-42.3-7.8V98.7
			"/>
	</g>
	<g>
		<path class="st2" d="M61.7,136.3c0-8.5-8.3-11.4-9.4-18.8c-0.9-6.6,1.9-10.3,1.9-15v-1.9"/>
		<path class="st2" d="M51.7,100.6v2.8c0,3.8,1.6,5.6,7.2,12.2s7.5,14.1,7.5,17.9v1.9"/>
	</g>
	<g transform="translate(49.500000, 45.750000)">
		<path class="st3" d="M0.5,8.6c0,0,8.7,0,15.8,0.8c7.1,0.8,11.8,2.4,11.8,2.4"/>
		<path class="st3" d="M0.5,12.8c0,0,8.7,0,15.8,0.8s11.8,2.4,11.8,2.4"/>
		<path class="st3" d="M0.5,17.1c0,0,8.7,0,15.8,0.8c7.1,0.8,11.8,2.4,11.8,2.4"/>
		<path class="st3" d="M0.5,21.4c0,0,8.7,0,15.8,0.8s11.8,2.4,11.8,2.4"/>
		<path class="st3" d="M0.5,25.6c0,0,8.7,0,15.8,0.8c7.1,0.8,11.8,2.4,11.8,2.4"/>
		<path class="st3" d="M0.5,29.9c0,0,8.7,0,15.8,0.8c7.1,0.8,11.8,2.4,11.8,2.4"/>
		<path class="st3" d="M0.5,34.1c0,0,8.7,0,15.8,0.8s11.8,2.4,11.8,2.4"/>
	</g>
</g>
</svg>
