<?xml version="1.0" encoding="UTF-8" standalone="no"?>
<!-- Created with Inkscape (http://www.inkscape.org/) -->

<svg
   xmlns:dc="http://purl.org/dc/elements/1.1/"
   xmlns:cc="http://creativecommons.org/ns#"
   xmlns:rdf="http://www.w3.org/1999/02/22-rdf-syntax-ns#"
   xmlns:svg="http://www.w3.org/2000/svg"
   xmlns="http://www.w3.org/2000/svg"
   version="1.1"
   width="546.58752"
   height="547.72626"
   id="svg2"
   xml:space="preserve"><metadata
     id="metadata8"><rdf:RDF><cc:Work
         rdf:about=""><dc:format>image/svg+xml</dc:format><dc:type
           rdf:resource="http://purl.org/dc/dcmitype/StillImage" /><dc:title></dc:title></cc:Work></rdf:RDF></metadata><defs
     id="defs6"><clipPath
       id="clipPath16"><path
         d="m 0,438.181 437.271,0 L 437.271,0 0,0 0,438.181 z"
         id="path18" /></clipPath></defs><g
     transform="matrix(1.25,0,0,-1.25,0,547.72625)"
     id="g10"><g
       transform="translate(46.33,270.8948)"
       id="g24"
       style="fill:#000000"><path
         d="m 0,0 -27.608,2.341 c 0,0 37.245,6.301 13.799,37.627 L 9.119,24.475 0,0 z"
         id="path26"
         style="fill:#000000;fill-opacity:1;fill-rule:nonzero;stroke:none" /></g><g
       transform="translate(65.6886,314.7528)"
       id="g28"
       style="fill:#000000"><path
         d="m 0,0 -26.02,9.513 c 0,0 37.598,-3.71 23.204,32.673 L 15.232,21.215 0,0 z"
         id="path30"
         style="fill:#000000;fill-opacity:1;fill-rule:nonzero;stroke:none" /></g><g
       transform="translate(95.0977,351.226)"
       id="g32"
       style="fill:#000000"><path
         d="m 0,0 -22.695,15.884 c 0,0 35.377,-13.258 30.827,25.609 L 20.18,16.58 0,0 z"
         id="path34"
         style="fill:#000000;fill-opacity:1;fill-rule:nonzero;stroke:none" /></g><g
       transform="translate(133.6909,379.334)"
       id="g36"
       style="fill:#000000"><path
         d="m 0,0 -17.748,21.272 c 0,0 30.669,-22.049 36.459,16.655 L 23.817,10.72 0,0 z"
         id="path38"
         style="fill:#000000;fill-opacity:1;fill-rule:nonzero;stroke:none" /></g><g
       transform="translate(177.6668,396.4597)"
       id="g40"
       style="fill:#000000"><path
         d="m 0,0 -11.672,25.117 c 0,0 23.96,-29.193 39.512,6.716 L 25.772,4.23 0,0 z"
         id="path42"
         style="fill:#000000;fill-opacity:1;fill-rule:nonzero;stroke:none" /></g><g
       transform="translate(224.8921,401.688)"
       id="g44"
       style="fill:#000000"><path
         d="m 0,0 -4.779,27.287 c 0,0 15.585,-34.416 39.907,-3.754 L 25.99,-2.588 0,0 z"
         id="path46"
         style="fill:#000000;fill-opacity:1;fill-rule:nonzero;stroke:none" /></g><g
       transform="translate(271.8847,394.4933)"
       id="g48"
       style="fill:#000000"><path
         d="m 0,0 2.46,27.591 c 0,0 6.137,-37.268 37.573,-13.96 L 24.431,-9.231 0,0 z"
         id="path50"
         style="fill:#000000;fill-opacity:1;fill-rule:nonzero;stroke:none" /></g><g
       transform="translate(316.3198,374.8191)"
       id="g52"
       style="fill:#000000"><path
         d="m 0,0 9.678,25.952 c 0,0 -3.96,-37.56 32.536,-23.405 L 21.112,-15.372 0,0 z"
         id="path54"
         style="fill:#000000;fill-opacity:1;fill-rule:nonzero;stroke:none" /></g><g
       transform="translate(352.5831,345.5292)"
       id="g56"
       style="fill:#000000"><path
         d="m 0,0 15.962,22.645 c 0,0 -13.375,-35.326 25.507,-30.906 L 16.517,-20.23 0,0 z"
         id="path58"
         style="fill:#000000;fill-opacity:1;fill-rule:nonzero;stroke:none" /></g><g
       transform="translate(380.4641,307.538)"
       id="g60"
       style="fill:#000000"><path
         d="m 0,0 21.239,17.78 c 0,0 -21.997,-30.694 16.713,-36.425 L 10.762,-23.794 0,0 z"
         id="path62"
         style="fill:#000000;fill-opacity:1;fill-rule:nonzero;stroke:none" /></g><g
       transform="translate(397.6481,263.6574)"
       id="g64"
       style="fill:#000000"><path
         d="m 0,0 25.089,11.726 c 0,0 -29.143,-24.014 6.794,-39.492 L 4.287,-25.754 0,0 z"
         id="path66"
         style="fill:#000000;fill-opacity:1;fill-rule:nonzero;stroke:none" /></g><g
       transform="translate(402.9626,216.2525)"
       id="g68"
       style="fill:#000000"><path
         d="m 0,0 27.284,4.808 c 0,0 -34.391,-15.617 -3.702,-39.91 L -2.549,-25.988 0,0 z"
         id="path70"
         style="fill:#000000;fill-opacity:1;fill-rule:nonzero;stroke:none" /></g><g
       transform="translate(395.8111,169.2012)"
       id="g72"
       style="fill:#000000"><path
         d="m 0,0 27.594,-2.448 c 0,0 -37.264,-6.148 -13.938,-37.567 L -9.213,-24.44 0,0 z"
         id="path74"
         style="fill:#000000;fill-opacity:1;fill-rule:nonzero;stroke:none" /></g><g
       transform="translate(376.4834,125.3136)"
       id="g76"
       style="fill:#000000"><path
         d="m 0,0 26.016,-9.512 c 0,0 -37.587,3.719 -23.206,-32.677 L -15.229,-21.205 0,0 z"
         id="path78"
         style="fill:#000000;fill-opacity:1;fill-rule:nonzero;stroke:none" /></g><g
       transform="translate(346.7689,88.2712)"
       id="g80"
       style="fill:#000000"><path
         d="m 0,0 22.697,-15.883 c 0,0 -35.366,13.254 -30.823,-25.613 L -20.173,-16.578 0,0 z"
         id="path82"
         style="fill:#000000;fill-opacity:1;fill-rule:nonzero;stroke:none" /></g><g
       transform="translate(308.7474,60.2247)"
       id="g84"
       style="fill:#000000"><path
         d="m 0,0 17.88,-21.16 c 0,0 -30.796,21.854 -36.343,-16.879 L -23.739,-10.877 0,0 z"
         id="path86"
         style="fill:#000000;fill-opacity:1;fill-rule:nonzero;stroke:none" /></g><g
       transform="translate(264.82,42.8306)"
       id="g88"
       style="fill:#000000"><path
         d="m 0,0 11.886,-25.029 c 0,0 -24.196,29.003 -39.462,-7.026 L -25.728,-4.444 0,0 z"
         id="path90"
         style="fill:#000000;fill-opacity:1;fill-rule:nonzero;stroke:none" /></g><g
       transform="translate(217.0167,37.2628)"
       id="g92"
       style="fill:#000000"><path
         d="m 0,0 4.955,-27.254 c 0,0 -15.809,34.296 -39.931,3.484 L -26,2.411 0,0 z"
         id="path94"
         style="fill:#000000;fill-opacity:1;fill-rule:nonzero;stroke:none" /></g><g
       transform="translate(169.515,44.9276)"
       id="g96"
       style="fill:#000000"><path
         d="m 0,0 -2.262,-27.608 c 0,0 -6.395,37.219 -37.669,13.696 L -24.496,9.053 0,0 z"
         id="path98"
         style="fill:#000000;fill-opacity:1;fill-rule:nonzero;stroke:none" /></g><g
       transform="translate(126.8253,63.5833)"
       id="g100"
       style="fill:#000000"><path
         d="m 0,0 -9.347,-26.078 c 0,0 3.465,37.602 -32.835,22.987 L -21.314,15.092 0,0 z"
         id="path102"
         style="fill:#000000;fill-opacity:1;fill-rule:nonzero;stroke:none" /></g><g
       transform="translate(89.083,93.3223)"
       id="g104"
       style="fill:#000000"><path
         d="m 0,0 -15.822,-22.736 c 0,0 13.157,35.4 -25.695,30.762 L -16.629,20.132 0,0 z"
         id="path106"
         style="fill:#000000;fill-opacity:1;fill-rule:nonzero;stroke:none" /></g><g
       transform="translate(61.9005,131.8322)"
       id="g108"
       style="fill:#000000"><path
         d="m 0,0 -21.161,-17.867 c 0,0 21.866,30.787 -16.871,36.355 l 27.17,5.258 L 0,0 z"
         id="path110"
         style="fill:#000000;fill-opacity:1;fill-rule:nonzero;stroke:none" /></g><g
       transform="translate(44.1096,176.7856)"
       id="g112"
       style="fill:#000000"><path
         d="m 0,0 -25.116,-11.682 c 0,0 29.19,23.966 -6.721,39.51 L -4.24,25.766 0,0 z"
         id="path114"
         style="fill:#000000;fill-opacity:1;fill-rule:nonzero;stroke:none" /></g><g
       transform="translate(38.6564,224.011)"
       id="g116"
       style="fill:#000000"><path
         d="m 0,0 -27.278,-4.796 c 0,0 34.386,15.615 3.714,39.904 L 2.567,25.993 0,0 z"
         id="path118"
         style="fill:#000000;fill-opacity:1;fill-rule:nonzero;stroke:none" /></g><g
       transform="translate(169.5226,287.3291)"
       id="g124"
       style="fill:#000000"><path
         d="m 0,0 9.909,-10.359 14.152,2.294 -6.788,-12.625 6.551,-12.75 -14.106,2.554 -10.1,-10.171 -1.93,14.205 -12.793,6.463 12.913,6.223 L 0,0 z"
         id="path126"
         style="fill:#000000;fill-opacity:1;fill-rule:nonzero;stroke:none" /></g><g
       transform="matrix(1.1764573,0,0,1.1461759,383.23288,233.97645)"
       id="g128"
       style="fill:none;stroke:#000000;stroke-width:3.20000005;stroke-miterlimit:4;stroke-opacity:1;stroke-dasharray:none"><path
         d="m 0,0 c 6.48,-75.91 -49.805,-142.701 -125.715,-149.18 -75.911,-6.48 -142.701,49.805 -149.181,125.715 -6.479,75.91 49.805,142.701 125.716,149.18 C -73.27,132.195 -6.48,75.91 0,0 z"
         id="path130"
         style="fill:none;stroke:#000000;stroke-width:3.20000005;stroke-linecap:butt;stroke-linejoin:miter;stroke-miterlimit:4;stroke-opacity:1;stroke-dasharray:none" /></g><g
       transform="translate(116.9174,200.5503)"
       id="g356"
       style="fill:#000000"><path
         d="m 0,0 -22.247,-7 -6.404,20.354 68.963,21.7 L 46.717,14.699 24.471,7.7 43.056,-51.364 18.585,-59.064 0,0 z"
         id="path358"
         style="fill:#000000;fill-opacity:1;fill-rule:nonzero;stroke:none" /></g><g
       transform="translate(170.9095,239.9087)"
       id="g360"
       style="fill:#000000"><path
         d="m 0,0 24.471,7.7 24.99,-79.419 -24.472,-7.7 L 0,0 z"
         id="path362"
         style="fill:#000000;fill-opacity:1;fill-rule:nonzero;stroke:none" /></g><g
       transform="translate(212.1752,252.8931)"
       id="g364"
       style="fill:#000000"><path
         d="m 0,0 24.471,7.7 18.584,-59.063 35.15,11.059 6.404,-20.355 -59.62,-18.76 L 0,0 z"
         id="path366"
         style="fill:#000000;fill-opacity:1;fill-rule:nonzero;stroke:none" /></g><g
       transform="translate(292.4359,255.7778)"
       id="g368"
       style="fill:#000000"><path
         d="M 0,0 -22.247,-7 -28.651,13.355 40.312,35.054 46.717,14.7 24.471,7.7 43.056,-51.365 18.585,-59.064 0,0 z"
         id="path370"
         style="fill:#000000;fill-opacity:1;fill-rule:nonzero;stroke:none" /></g></g><g
     id="layer4" /></svg>