<?xml version="1.0" encoding="utf-8"?>
<!-- Generator: Adobe Illustrator 23.0.2, SVG Export Plug-In . SVG Version: 6.00 Build 0)  -->
<svg version="1.1" id="zseries-svg" xmlns="http://www.w3.org/2000/svg" xmlns:xlink="http://www.w3.org/1999/xlink" x="0px" y="0px"
	 viewBox="0 0 242 235" style="enable-background:new 0 0 242 235;" xml:space="preserve">
<style type="text/css">
	.st0{fill:none;stroke:#ffffff;stroke-width:1.5;}
	.st1{fill:none;stroke:#ffffff;stroke-width:1.5;stroke-linejoin:bevel;}
	.st2{fill:none;stroke:#ffffff;stroke-width:1.5;stroke-linecap:square;}
</style>
<title>Z Series</title>
<g>
	<path class="st0" d="M49.4,178v7.1c0,0.4,0.3,0.8,0.6,0.8h146c0.3,0,0.6-0.3,0.6-0.8V178H49.4z"/>
	<path class="st0" d="M45.9,110.6l-0.2,66.6c0,0.4,0.3,0.8,0.7,0.8h153.3c0.4,0,0.7-0.3,0.7-0.8l-1.5-66.6H45.9z"/>
	<polygon class="st0" points="39.3,105.1 39.3,110 205.4,110 205.4,105.1 	"/>
	<path class="st1" d="M213.8,194.5v6.5c0,1.2-1.7,2.7-2.9,2.7h-178c-1.2,0-2.2-1.5-2.2-2.7v-6.6l3.2-5.5l177,0.3l3,5.9l-183.3-0.6"
		/>
	<path class="st0" d="M210.4,189.1c0.1-0.3,0.2-0.6,0.2-1V98.9c0-1.2-1-2.3-2.3-2.3H36.4c-1.2,0-2.3,1-2.3,2.3v89.2
		c0,0.3,0.1,0.5,0.1,0.8L210.4,189.1z"/>
	<path class="st0" d="M152.2,60.8c-3.8,0-6.8-3-6.8-6.8c0-3.8,3-6.8,6.8-6.8c3.7,0,6.8,3,6.8,6.8C159,57.7,156,60.8,152.2,60.8z"/>
	<path class="st0" d="M88.4,57.7c-1.7,0-3.1-1.4-3.1-3.1c0-1.7,1.4-3.1,3.1-3.1c1.7,0,3.1,1.4,3.1,3.1
		C91.6,56.3,90.2,57.7,88.4,57.7z"/>
	<path class="st0" d="M88,42h65c6.6,0,12,5.4,12,12l0,0c0,6.6-5.4,12-12,12H88c-6.6,0-12-5.4-12-12l0,0C76,47.4,81.4,42,88,42z"/>
	<path class="st0" d="M115.7,47.3h9.6c1.1,0,2,0.9,2,2v9.6c0,1.1-0.9,2-2,2h-9.6c-1.1,0-2-0.9-2-2v-9.6
		C113.7,48.2,114.6,47.3,115.7,47.3z"/>
	<path class="st0" d="M32.1,30h177.7c2.2,0,4,1.8,4,4v40.8c0,2.2-1.8,4-4,4H32.1c-2.2,0-4-1.8-4-4V34C28.1,31.8,29.9,30,32.1,30z"/>
	<path class="st0" d="M207.6,214.2l0.6,2.7c0,0,0.9,1.3,5.3,1.3s4.8-1.4,4.8-1.4v-2.9l10.7,0.3c0,0,2.3-0.4,2.4-1.9
		c0.1-1,1.7-86.1,2.7-141.7c0-0.5,5.9,0,5.9-0.5c0-0.6,0-3.8,0-4.4c0-0.6-5.9-0.1-5.9-0.6c0.1-6.8,0.2-13,0.3-18.5
		c0-1.3,6.1,0,6.1-1.2c0-0.5,0-4.8,0-5.3c0-0.7-6,0-5.9-0.7c0.2-9.6,0.3-15.6,0.3-16c0.2-2.1-0.3-4.4-2.5-4.4L9.5,19.5
		c-2.1,0-2.6,1.8-2.5,3.9c0.2,2.1,3.4,187.4,3.5,188.9c0.1,1.5,3.4,1.9,2.4,1.9h10.2l0.5,2.5c0,0,0.4,1.4,4.8,1.4
		c4.4,0,5.3-1.3,5.3-1.3l0.3-2.9L207.6,214.2z"/>
	<path class="st2" d="M8.5,87.5h225"/>
</g>
</svg>
