<?xml version="1.0" encoding="utf-8"?>
<!-- Generator: Adobe Illustrator 23.0.2, SVG Export Plug-In . SVG Version: 6.00 Build 0)  -->
<svg version="1.1" id="zymatic-svg" xmlns="http://www.w3.org/2000/svg" xmlns:xlink="http://www.w3.org/1999/xlink" x="0px"
	 y="0px" viewBox="0 0 246 236" style="enable-background:new 0 0 246 236;" xml:space="preserve">
<style type="text/css">
	.st0{fill:none;stroke:#ffffff;stroke-width:1.5;}
	.st1{fill:none;stroke:#ffffff;stroke-width:1.5;stroke-linejoin:bevel;}
	.st2{fill:none;stroke:#ffffff;stroke-width:2;}
</style>
<title>zymatic</title>
<g id="Page-1">
	<g id="zymatic">
		<path class="st0" d="M49.4,157v7.1c0,0.4,0.3,0.8,0.6,0.8h146c0.3,0,0.6-0.3,0.6-0.8V157H49.4z"/>
		<path class="st0" d="M45.9,85.6l-0.2,70.6c0,0.4,0.3,0.8,0.7,0.8h153.3c0.4,0,0.7-0.3,0.7-0.8l-1.5-70.6H45.9z"/>
		<polygon class="st0" points="39.3,80.1 39.3,85 205.4,85 205.4,80.1 		"/>
		<path class="st1" d="M213.8,173.5v6.5c0,1.2-1.7,2.7-2.9,2.7h-178c-1.2,0-2.2-1.5-2.2-2.7v-6.6l3.2-5.5l177,0.3l3,5.9l-183.3-0.6"
			/>
		<path class="st0" d="M34.3,167.9l176.1,0.3c0.1-0.3,0.2-0.6,0.2-1V73.9c0-1.2-1-2.3-2.3-2.3H36.4c-1.2,0-2.3,1-2.3,2.3v93.2
			C34.2,167.4,34.3,167.6,34.3,167.9"/>
		<path class="st0" d="M183,49.2c-3.8,0-6.8-3.1-6.8-6.8c0-3.8,3-6.8,6.8-6.8c3.7,0,6.8,3,6.8,6.8C189.8,46.1,186.8,49.2,183,49.2z"
			/>
		<path class="st0" d="M138.7,49.5c0,1.2-1,2.3-2.3,2.3h-28.9c-1.2,0-2.3-1-2.3-2.3V36.3c0-1.2,1-2.3,2.3-2.3h28.9
			c1.2,0,2.3,1,2.3,2.3V49.5z"/>
		<path class="st0" d="M68.3,49.5c0,1.2-1,2.3-2.3,2.3h-7.7c-1.2,0-2.3-1-2.3-2.3V37.3c0-1.2,1-2.3,2.3-2.3h7.7c1.2,0,2.3,1,2.3,2.3
			V49.5z"/>
		<path class="st2" d="M210.4,214.8l0.6,2.7c0,0,1,1.3,5.4,1.3c4.5,0,4.8-1.4,4.8-1.4v-2.9l15.9,0.3c0,0,2.3-0.4,2.4-1.9
			c0.1-1.5,3.3-189.2,3.5-191.4c0.2-2.2-0.3-4.5-2.5-4.5l-236,0.5c-2.2,0-2.7,1.8-2.5,4c0.2,2.2,3.4,189.9,3.5,191.4
			c0.1,1.5,2.4,1.9,2.4,1.9h15.4l0.5,2.6c0,0,0.4,1.4,4.8,1.4c4.5,0,5.4-1.3,5.4-1.3l0.3-3L210.4,214.8z"/>
	</g>
</g>
</svg>
